<svg width="900" height="180" xmlns="http://www.w3.org/2000/svg" version="1.1">
<metadata id="metadata27709">image/svg+xml</metadata>

  <g>
    <title>Layer 1</title>
    <g id="title" aria-label="tips coin" font-style="normal" font-weight="normal" font-size="115.11111px" font-family="'Brandmark Sans 25'" text-anchor="middle">
      <path id="path27711" d="m120.02948,52.71111l-92.66444,0c-1.26623,0 -2.41734,1.036 -2.41734,2.41733l0,11.396c0,1.38134 1.15111,2.41734 2.41734,2.41734l38.21689,0l0,61.92978c0,1.26622 1.036,2.41733 2.41733,2.41733l11.396,0c1.38133,0 2.41733,-1.15111 2.41733,-2.41733l0,-61.92978l38.21689,0c1.26623,0 2.41734,-1.036 2.41734,-2.41734l0,-11.396c0,-1.38133 -1.15111,-2.41733 -2.41734,-2.41733z" fill="#ffffff"/>
      <path id="path27713" d="m147.73349,52.71111l-11.396,0c-1.26622,0 -2.41733,1.036 -2.41733,2.41733l0,75.74312c0,1.26622 1.15111,2.41733 2.41733,2.41733l11.396,0c1.38134,0 2.41734,-1.15111 2.41734,-2.41733l0,-75.74312c0,-1.38133 -1.036,-2.41733 -2.41734,-2.41733z" fill="#ffffff"/>
      <path id="path27715" d="m240.14254,52.71111l-69.87244,0c-1.26623,0 -2.41734,1.036 -2.41734,2.41733l0,11.396c0,1.38134 1.15111,2.41734 2.41734,2.41734l69.87244,0c4.37422,0 7.94267,3.56844 7.94267,7.94266c0,4.37423 -3.56845,7.94267 -7.94267,7.94267l-69.87244,0c-1.26623,0 -2.41734,1.15111 -2.41734,2.41734l0,43.62711c0,1.26622 1.15111,2.41733 2.41734,2.41733l11.396,0c1.38133,0 2.41733,-1.15111 2.41733,-2.41733l0,-29.69867l56.05911,0c13.35289,0 24.28845,-10.93556 24.28845,-24.28845c0,-13.35288 -10.93556,-24.17333 -24.28845,-24.17333z" fill="#ffffff"/>
      <path id="path27717" d="m274.36652,76.88444c0,13.35289 10.82044,24.28845 24.17333,24.28845l51.33956,0c4.37422,0 7.94267,3.56844 7.94267,7.94267c0,4.37422 -3.56845,7.94266 -7.94267,7.94266l-71.484,0c-1.26622,0 -2.41734,1.036 -2.41734,2.41734l0,11.396c0,1.26622 1.15112,2.41733 2.41734,2.41733l71.484,0c13.35289,0 24.17333,-10.82044 24.17333,-24.17333c0,-13.35289 -10.82044,-24.28845 -24.17333,-24.28845l-51.33956,0c-4.37422,0 -7.94266,-3.56844 -7.94266,-7.94267c0,-4.37422 3.56844,-7.94266 7.94266,-7.94266l71.59912,0c1.26622,0 2.41733,-1.036 2.41733,-2.41734l0,-11.396c0,-1.38133 -1.15111,-2.41733 -2.41733,-2.41733l-71.59912,0c-13.35289,0 -24.17333,10.82045 -24.17333,24.17333z" fill="#ffffff"/>
      <path id="path27719" d="m473.4242,68.94178l62.16,0c1.38133,0 2.53244,-1.036 2.53244,-2.41734l0,-11.396c0,-1.26622 -1.15111,-2.41733 -2.53244,-2.41733l-62.16,0c-17.72711,0 -32.116,14.38889 -32.116,32.116l0,16.34578c0,17.72711 14.38889,32.116 32.116,32.116l62.16,0c1.38133,0 2.53244,-1.15111 2.53244,-2.41733l0,-11.396c0,-1.38134 -1.15111,-2.41734 -2.53244,-2.41734l-62.16,0c-8.74845,0 -15.88534,-7.13689 -15.88534,-15.88533l0,-16.34578c0,-8.74844 7.13689,-15.88533 15.88534,-15.88533z" fill="#ffffff"/>
      <path id="path27721" d="m618.34011,52.71111l-39.02266,0c-17.72711,0 -32.116,14.38889 -32.116,32.116l0,16.34578c0,17.72711 14.38889,32.116 32.116,32.116l39.02266,0c17.72712,0 32.11601,-14.38889 32.11601,-32.116l0,-16.34578c0,-17.72711 -14.38889,-32.116 -32.11601,-32.116zm15.88534,32.116l0,16.34578c0,8.74844 -7.13689,15.88533 -15.88534,15.88533l-39.02266,0c-8.74845,0 -15.88534,-7.13689 -15.88534,-15.88533l0,-16.34578c0,-8.74844 7.13689,-15.88533 15.88534,-15.88533l39.02266,0c8.74845,0 15.88534,7.13689 15.88534,15.88533z" fill="#ffffff"/>
      <path id="path27723" d="m679.89757,52.71111l-11.39601,0c-1.26622,0 -2.41733,1.036 -2.41733,2.41733l0,75.74312c0,1.26622 1.15111,2.41733 2.41733,2.41733l11.39601,0c1.38133,0 2.41733,-1.15111 2.41733,-2.41733l0,-75.74312c0,-1.38133 -1.036,-2.41733 -2.41733,-2.41733z" fill="#ffffff"/>
      <path id="path27725" d="m801.77508,52.71111l-11.396,0c-1.38133,0 -2.53244,1.036 -2.53244,2.41733l0,63.54134c-8.97867,0 -18.30267,-14.504 -27.28134,-28.43245c-11.97155,-18.41777 -24.28844,-37.52622 -43.512,-37.52622l-13.81333,0c-1.26623,0 -2.41734,1.036 -2.41734,2.41733l0,75.74312c0,1.26622 1.15111,2.41733 2.41734,2.41733l11.396,0c1.38133,0 2.41733,-1.15111 2.41733,-2.41733l0,-63.54134c11.28089,0 21.41067,15.77022 31.19511,30.84978c11.05067,17.26667 22.56178,35.10889 39.59823,35.10889l13.92844,0c1.26622,0 2.41733,-1.15111 2.41733,-2.41733l0,-75.74312c0,-1.38133 -1.15111,-2.41733 -2.41733,-2.41733z" fill="#ffffff"/>
    </g>
    <ellipse stroke-width="0" stroke="#000" ry="22" rx="22" id="svg_1" cy="140" cx="852" fill="#ff006a"/>
  </g>
</svg>
