<svg width="1024" height="201" xmlns="http://www.w3.org/2000/svg" version="1.1">
 <metadata id="metadata197491">image/svg+xml</metadata>

 <g>
  <title>Layer 1</title>
  <g text-anchor="middle" font-family="'Brandmark Sans 25'" font-size="115.11111px" font-weight="normal" font-style="normal" aria-label="Stream.ad" id="title">
   <path fill="#2d3132" d="m40.99468,85.11521c0,13.35289 10.82045,24.28845 24.17334,24.28845l51.33955,0c4.37422,0 7.94267,3.56844 7.94267,7.94267c0,4.37422 -3.56845,7.94266 -7.94267,7.94266l-71.484,0c-1.26622,0 -2.41733,1.036 -2.41733,2.41734l0,11.396c0,1.26622 1.15111,2.41733 2.41733,2.41733l71.484,0c13.35289,0 24.17334,-10.82044 24.17334,-24.17333c0,-13.35289 -10.82045,-24.28845 -24.17334,-24.28845l-51.33955,0c-4.37423,0 -7.94267,-3.56844 -7.94267,-7.94267c0,-4.37422 3.56844,-7.94266 7.94267,-7.94266l71.59911,0c1.26622,0 2.41733,-1.036 2.41733,-2.41734l0,-11.396c0,-1.38133 -1.15111,-2.41733 -2.41733,-2.41733l-71.59911,0c-13.35289,0 -24.17334,10.82045 -24.17334,24.17333z" id="path197493"/>
   <path fill="#2d3132" d="m244.35645,60.94188l-92.66444,0c-1.26623,0 -2.41734,1.036 -2.41734,2.41733l0,11.396c0,1.38134 1.15111,2.41734 2.41734,2.41734l38.21689,0l0,61.92978c0,1.26622 1.036,2.41733 2.41733,2.41733l11.396,0c1.38133,0 2.41733,-1.15111 2.41733,-2.41733l0,-61.92978l38.21689,0c1.26623,0 2.41734,-1.036 2.41734,-2.41734l0,-11.396c0,-1.38133 -1.15111,-2.41733 -2.41734,-2.41733z" id="path197495"/>
   <path fill="#2d3132" d="m257.55646,139.10233c0,1.26622 1.15111,2.41733 2.41733,2.41733l11.396,0c1.38133,0 2.41733,-1.15111 2.41733,-2.41733l0,-29.69867l41.20978,0c3.91378,0 7.59734,2.072 9.55422,5.52533l14.27378,25.32445c0.46045,0.80578 1.26622,1.26622 2.18711,1.26622l13.12267,0c1.84178,0 2.99289,-2.072 2.072,-3.68355l-17.15156,-30.27423c8.86356,-3.56844 15.07956,-12.31689 15.07956,-22.44667c0,-13.35288 -10.93556,-24.17333 -24.28844,-24.17333l-69.87245,0c-1.26622,0 -2.41733,1.036 -2.41733,2.41733l0,11.396c0,1.38134 1.15111,2.41734 2.41733,2.41734l69.87245,0c4.37422,0 7.94266,3.56844 7.94266,7.94266c0,4.37423 -3.56844,7.94267 -7.94266,7.94267l-69.87245,0c-1.26622,0 -2.41733,1.15111 -2.41733,2.41734l0,43.62711z" id="path197497"/>
   <path fill="#2d3132" d="m462.86973,60.94188l-91.85867,0c-1.26622,0 -2.41733,1.036 -2.41733,2.41733l0,11.396c0,1.38134 1.15111,2.41734 2.41733,2.41734l91.85867,0c1.38134,0 2.53245,-1.036 2.53245,-2.41734l0,-11.396c0,-1.38133 -1.15111,-2.41733 -2.53245,-2.41733zm0,64.34711l-78.04533,0l0,-15.88533l61.81467,0c1.38133,0 2.41733,-1.15111 2.41733,-2.53244l0,-11.28089c0,-1.38134 -1.036,-2.53245 -2.41733,-2.53245l-75.62801,0c-1.26622,0 -2.41733,1.15111 -2.41733,2.53245l0,43.512c0,1.26622 1.15111,2.41733 2.41733,2.41733l91.85867,0c1.38134,0 2.53245,-1.15111 2.53245,-2.41733l0,-11.396c0,-1.38134 -1.15111,-2.41734 -2.53245,-2.41734z" id="path197499"/>
   <path fill="#2d3132" d="m581.25073,137.95122l-34.64844,-66.87956c-3.56845,-6.90667 -10.24489,-11.85645 -17.95734,-12.54711c-9.20889,-0.80578 -17.612,3.91378 -21.756,11.97155l-34.99378,67.45512c-0.80577,1.61155 0.34534,3.56844 2.18711,3.56844l12.89245,0c0.92089,0 1.72667,-0.46044 2.18711,-1.26622l32.116,-62.27511c1.49645,-2.87778 4.25911,-3.22312 5.29511,-3.22312c1.036,0 3.79867,0.34534 5.29511,3.22312l32.116,62.27511c0.46045,0.80578 1.26623,1.26622 2.18712,1.26622l12.89244,0c1.84178,0 2.99289,-1.95689 2.18711,-3.56844z" id="path197501"/>
   <path fill="#2d3132" d="m703.5311,59.56055c-5.75556,-1.38134 -11.62622,1.26622 -14.38889,6.56133l-30.15911,58.36134c-1.49645,2.87777 -4.25911,3.22311 -5.29511,3.22311c-1.036,0 -3.79867,-0.34534 -5.29511,-3.22311l-29.92889,-57.90089c-2.99289,-5.75556 -9.20889,-8.51823 -15.54,-7.02178c-6.216,1.49644 -10.47511,6.90666 -10.47511,13.35289l0,68.60622l16.23066,0l0,-58.36133l25.32445,48.80711c3.79866,7.36711 11.396,11.97155 19.684,11.97155c8.288,0 15.88533,-4.60444 19.684,-11.97155l23.71289,-45.69911l0,55.25333l16.23067,0l0,-69.52711c0,-5.87067 -4.02889,-11.05067 -9.78445,-12.432z" id="path197503"/>
   <path fill="#2d3132" d="m884.07106,137.95122l-34.64844,-66.87956c-3.56845,-6.90667 -10.24489,-11.85645 -17.95734,-12.54711c-9.20889,-0.80578 -17.612,3.91378 -21.756,11.97155l-34.99378,67.45512c-0.80577,1.61155 0.34534,3.56844 2.18711,3.56844l12.89245,0c0.92089,0 1.72667,-0.46044 2.18711,-1.26622l32.116,-62.27511c1.49645,-2.87778 4.25911,-3.22312 5.29511,-3.22312c1.036,0 3.79867,0.34534 5.29511,3.22312l32.116,62.27511c0.46045,0.80578 1.26623,1.26622 2.18712,1.26622l12.89244,0c1.84178,0 2.99289,-1.95689 2.18711,-3.56844z" id="path197507"/>
   <path fill="#2d3132" d="m957.07847,60.94188l-62.27512,0c-1.26622,0 -2.41733,1.15111 -2.41733,2.41733l0,11.396c0,1.38134 1.15111,2.41734 2.41733,2.41734l62.27512,0c8.74844,0 15.77022,7.13689 15.77022,15.88533l0,16.34578c0,8.74844 -7.02178,15.88533 -15.77022,15.88533l-48.46178,0l0,-29.35333c0,-1.38133 -1.036,-2.41733 -2.41734,-2.41733l-11.396,0c-1.26622,0 -2.41733,1.036 -2.41733,2.41733l0,43.16667c0,1.26622 1.15111,2.41733 2.41733,2.41733l62.27512,0c17.72711,0 32.116,-14.38889 32.116,-32.116l0,-16.34578c0,-17.72711 -14.38889,-32.116 -32.116,-32.116z" id="path197509"/>
  </g>
  <rect fill="#2d3132" stroke="#000" x="1050.30689" y="247.0384" width="3.84615" height="3.84615" id="svg_2"/>
  <ellipse stroke-width="0" fill="#ef0000" cx="748.76858" cy="144.73076" id="svg_3" rx="16.15384" ry="16.15384" stroke="#000"/>
 </g>
</svg>
